<svg height="487pt" viewBox="1 -54 487.99921 487" width="487pt" xmlns="http://www.w3.org/2000/svg" xmlns:xlink="http://www.w3.org/1999/xlink"><linearGradient id="a" gradientUnits="userSpaceOnUse" x1="96.433738" x2="419.745738" y1="364.24666" y2="40.93466"><stop offset="0" stop-color="#41dfd0"/><stop offset="1" stop-color="#ee83ef"/></linearGradient><path d="m240 184.503906c-44.179688 0-80 35.816406-80 80 0 44.179688 35.820312 80 80 80 44.183594 0 80-35.820312 80-80-.046875-44.164062-35.835938-79.953125-80-80zm0 16c26.992188.039063 51.058594 16.996094 60.179688 42.398438l-54.867188 12.191406-17.796875-53.382812c4.113281-.808594 8.292969-1.214844 12.484375-1.207032zm-64 64c.046875-24.589844 14.175781-46.980468 36.355469-57.601562l18.621093 55.863281-38.304687 44.695313c-10.722656-11.734376-16.671875-27.058594-16.671875-42.957032zm64 64c-12.519531 0-24.765625-3.695312-35.199219-10.617187l35.679688-41.601563 38.722656 38.714844c-11.195313 8.75-24.992187 13.503906-39.203125 13.503906zm50.496094-24.800781-34.535156-34.535156 47.738281-10.609375c.183593 1.96875.300781 3.953125.300781 5.960937 0 14.203125-4.753906 27.996094-13.503906 39.183594zm193.601562-46.039063-92.097656-55.289062v-113.871094h-16v104.261719l-20.519531-12.3125c-3.773438-2.261719-7.613281-4.335937-11.480469-6.359375v-53.589844h-16v45.941406c-10.375-4.382812-21.074219-7.96875-32-10.71875v-75.222656h-16v71.796875c-10.570312-1.863281-21.265625-2.945312-32-3.238281v-92.558594h-16v92.6875c-10.742188.480469-21.4375 1.75-32 3.800782v-40.488282h-16v44.199219c-10.941406 2.972656-21.640625 6.785156-32 11.40625v-23.605469h-16v31.628906c-3.542969 1.945313-7.085938 3.90625-10.550781 6.058594l-21.449219 13.3125v-67h-16v76.925782l-84.214844 52.273437c-2.351562 1.457031-3.785156 4.03125-3.785156 6.800781 0 2.769532 1.433594 5.339844 3.785156 6.796875l121.664063 75.515625c70.242187 43.824219 159.140625 44.492188 230.03125 1.734375l128.640625-77.191406c2.40625-1.449219 3.878906-4.050781 3.878906-6.855469 0-2.808594-1.472656-5.410156-3.878906-6.855468zm-350.214844 75.558594-110.679687-68.71875 110.710937-68.722656c10.816407-6.679688 22.226563-12.347656 34.085938-16.925781-25.339844 21.226562-39.980469 52.589843-39.980469 85.648437s14.640625 64.417969 39.980469 85.648438c-11.867188-4.585938-23.289062-10.253906-34.117188-16.929688zm106.117188 27.28125c-53.019531 0-96-42.980468-96-96 0-53.019531 42.980469-96 96-96s96 42.980469 96 96c-.054688 52.996094-43.003906 95.941406-96 96zm107.242188-25.671875c-12.261719 7.359375-25.253907 13.429688-38.769532 18.109375 27.453125-21.125 43.535156-53.800781 43.535156-88.4375 0-34.640625-16.082031-67.316406-43.535156-88.441406 13.519532 4.675781 26.515625 10.746094 38.777344 18.113281l117.207031 70.328125zm36.917968-263.929687 3.496094-17.503906-47.007812 33.601562c-2.832032 2.027344-6.65625 1.988281-9.445313-.097656l-90.21875-67.664063-91.101563 98.695313c-2.53125 2.738281-6.613281 3.363281-9.847656 1.511718l-56-32 7.933594-13.886718 50.472656 28.800781 91.679688-99.289063c2.785156-3.0156245 7.398437-3.433593 10.679687-.96875l91.320313 68.488282 42.121094-30.085938h-18.242188v-16h40c2.40625 0 4.679688 1.078125 6.199219 2.9375 1.519531 1.863282 2.121093 4.308594 1.640625 6.660156l-8 40zm0 0" fill="url(#a)"/></svg>