<svg id="Layer_1" data-name="Layer 1" xmlns="http://www.w3.org/2000/svg" viewBox="0 0 487 378.88"><title>logowhite</title><path d="M238.51,238.51a79.84,79.84,0,1,0,79.84,79.84A79.85,79.85,0,0,0,238.51,238.51Zm0,16a63.92,63.92,0,0,1,60.06,42.31L243.81,309l-17.76-53.27A63.63,63.63,0,0,1,238.51,254.48Zm-63.87,63.87a63.87,63.87,0,0,1,36.28-57.48l18.59,55.75-38.23,44.6A63.55,63.55,0,0,1,174.64,318.35Zm63.87,63.87a63.57,63.57,0,0,1-35.13-10.6L239,330.11l38.64,38.63A63.47,63.47,0,0,1,238.51,382.22Zm50.39-24.75L254.44,323l47.64-10.58c.18,2,.3,3.94.3,5.95A63.44,63.44,0,0,1,288.9,357.47Z" transform="translate(1 -54.88)" style="fill:#fff"/><path d="M482.13,311.51,390.2,256.35V142.71h-16v104l-20.48-12.29c-3.76-2.26-7.59-4.33-11.45-6.34V174.65h-16v45.84A220,220,0,0,0,294.4,209.8V134.73h-16v71.65a217.84,217.84,0,0,0-31.94-3.23V110.78h-16v92.49a218.53,218.53,0,0,0-31.94,3.8V166.66h-16v44.11a220.63,220.63,0,0,0-31.94,11.38V198.6h-16v31.56c-3.53,1.94-7.07,3.9-10.53,6.05l-21.4,13.28V182.63h-16V259.4l-84,52.16a8,8,0,0,0,0,13.57l121.41,75.36a219.49,219.49,0,0,0,229.56,1.74l128.38-77a8,8,0,0,0,0-13.68ZM132.61,386.93,22.16,318.35l110.48-68.58a205.64,205.64,0,0,1,34-16.89,111.49,111.49,0,0,0,0,170.94A207.11,207.11,0,0,1,132.61,386.93Zm105.9,27.22a95.8,95.8,0,1,1,95.8-95.8A95.8,95.8,0,0,1,238.51,414.15Zm107-25.62a205.84,205.84,0,0,1-38.69,18.08,111.37,111.37,0,0,0,0-176.52,205.59,205.59,0,0,1,38.7,18.08l117,70.18Z" transform="translate(1 -54.88)" style="fill:#fff"/><path d="M398,128.34l8-39.92a8,8,0,0,0-7.83-9.58H358.26v16h18.21l-42,30L243.3,56.49a8,8,0,0,0-10.66,1l-91.49,99.13L90.78,127.83l-8,13.82,55.89,31.94a8,8,0,0,0,9.83-1.51l90.94-98.49,90,67.52a8,8,0,0,0,9.42.11l46.91-33.54-3.48,17.47Z" transform="translate(1 -54.88)" style="fill:#fff"/></svg>